<svg
  width="245"
  height="45"
  viewBox="0 0 245 45"
  fill="none"
  xmlns="http://www.w3.org/2000/svg"
>
  <path
    d="M81.8427 8.84508V36.4814H75.9996V8.84508H81.8427ZM95.9071 36.8863C93.784 36.8863 91.9578 36.4365 90.4284 35.5368C88.9081 34.6282 87.7386 33.3688 86.9199 31.7584C86.1103 30.1481 85.7054 28.2949 85.7054 26.1988C85.7054 24.0757 86.1148 22.2135 86.9334 20.6121C87.7611 19.0018 88.9351 17.7468 90.4554 16.8472C91.9758 15.9386 93.784 15.4843 95.8801 15.4843C97.6884 15.4843 99.2717 15.8126 100.63 16.4694C101.989 17.1261 103.064 18.0482 103.855 19.2357C104.647 20.4232 105.083 21.8176 105.164 23.4189H99.7395C99.5866 22.3844 99.1818 21.5522 98.525 20.9225C97.8773 20.2838 97.0272 19.9644 95.9746 19.9644C95.084 19.9644 94.3058 20.2073 93.6401 20.6931C92.9834 21.1699 92.4706 21.8671 92.1017 22.7847C91.7329 23.7023 91.5485 24.8134 91.5485 26.1178C91.5485 27.4403 91.7284 28.5648 92.0882 29.4914C92.4571 30.418 92.9744 31.1242 93.6401 31.61C94.3058 32.0958 95.084 32.3387 95.9746 32.3387C96.6313 32.3387 97.2206 32.2037 97.7424 31.9339C98.2731 31.664 98.7095 31.2726 99.0513 30.7599C99.4022 30.2381 99.6316 29.6128 99.7395 28.8841H105.164C105.074 30.4675 104.642 31.8619 103.869 33.0674C103.104 34.2639 102.047 35.1995 100.698 35.8742C99.3482 36.5489 97.7514 36.8863 95.9071 36.8863ZM118.291 36.8863C116.159 36.8863 114.324 36.4545 112.785 35.5908C111.256 34.7182 110.077 33.4857 109.25 31.8934C108.422 30.2921 108.008 28.3983 108.008 26.2123C108.008 24.0802 108.422 22.209 109.25 20.5986C110.077 18.9883 111.242 17.7333 112.745 16.8337C114.256 15.9341 116.028 15.4843 118.061 15.4843C119.429 15.4843 120.702 15.7047 121.88 16.1455C123.068 16.5773 124.102 17.2296 124.984 18.1022C125.875 18.9748 126.567 20.0724 127.062 21.3948C127.557 22.7082 127.804 24.2466 127.804 26.0099V27.5887H110.302V24.0262H122.393C122.393 23.1985 122.213 22.4653 121.853 21.8266C121.493 21.1879 120.994 20.6886 120.355 20.3287C119.726 19.9599 118.993 19.7755 118.156 19.7755C117.283 19.7755 116.51 19.9779 115.835 20.3827C115.169 20.7786 114.647 21.3138 114.27 21.9885C113.892 22.6543 113.698 23.3965 113.689 24.2151V27.6022C113.689 28.6278 113.878 29.5139 114.256 30.2606C114.643 31.0073 115.187 31.583 115.889 31.9878C116.591 32.3927 117.423 32.5951 118.385 32.5951C119.024 32.5951 119.609 32.5051 120.14 32.3252C120.67 32.1453 121.125 31.8754 121.502 31.5155C121.88 31.1557 122.168 30.7149 122.366 30.1931L127.683 30.5439C127.413 31.8214 126.86 32.9369 126.023 33.8905C125.195 34.8351 124.125 35.5728 122.811 36.1036C121.507 36.6254 120 36.8863 118.291 36.8863ZM155.451 16.7932C155.343 15.7047 154.88 14.859 154.061 14.2563C153.242 13.6536 152.131 13.3522 150.728 13.3522C149.774 13.3522 148.969 13.4871 148.312 13.757C147.656 14.0179 147.152 14.3823 146.801 14.8501C146.459 15.3179 146.288 15.8486 146.288 16.4424C146.27 16.9372 146.374 17.369 146.599 17.7378C146.832 18.1067 147.152 18.426 147.557 18.6959C147.961 18.9568 148.429 19.1862 148.96 19.3841C149.491 19.5731 150.058 19.735 150.66 19.8699L153.143 20.4637C154.349 20.7336 155.455 21.0934 156.463 21.5432C157.47 21.993 158.343 22.5463 159.081 23.203C159.818 23.8598 160.39 24.6334 160.795 25.5241C161.208 26.4147 161.42 27.4358 161.429 28.5873C161.42 30.2786 160.988 31.7449 160.133 32.9864C159.288 34.2189 158.064 35.177 156.463 35.8607C154.871 36.5354 152.95 36.8728 150.701 36.8728C148.47 36.8728 146.527 36.5309 144.871 35.8472C143.225 35.1635 141.939 34.1514 141.012 32.811C140.094 31.4616 139.613 29.7928 139.568 27.8046H145.222C145.285 28.7312 145.55 29.5049 146.018 30.1256C146.495 30.7374 147.129 31.2007 147.921 31.5155C148.722 31.8214 149.626 31.9743 150.633 31.9743C151.623 31.9743 152.482 31.8304 153.211 31.5425C153.948 31.2546 154.52 30.8543 154.925 30.3415C155.329 29.8287 155.532 29.2395 155.532 28.5738C155.532 27.953 155.347 27.4313 154.979 27.0084C154.619 26.5856 154.088 26.2258 153.386 25.9289C152.693 25.632 151.843 25.3621 150.836 25.1192L147.827 24.3635C145.497 23.7968 143.657 22.9107 142.307 21.7052C140.958 20.4997 140.288 18.8759 140.297 16.8337C140.288 15.1604 140.733 13.6985 141.633 12.4481C142.541 11.1976 143.787 10.2215 145.371 9.5198C146.954 8.81809 148.753 8.46724 150.768 8.46724C152.819 8.46724 154.61 8.81809 156.139 9.5198C157.677 10.2215 158.874 11.1976 159.729 12.4481C160.583 13.6985 161.024 15.1469 161.051 16.7932H155.451ZM176.276 15.7542V20.0724H163.794V15.7542H176.276ZM166.627 10.7883H172.376V30.1121C172.376 30.6429 172.457 31.0567 172.619 31.3536C172.781 31.6415 173.006 31.8439 173.294 31.9608C173.591 32.0778 173.932 32.1363 174.319 32.1363C174.589 32.1363 174.859 32.1138 175.129 32.0688C175.399 32.0148 175.606 31.9743 175.75 31.9474L176.654 36.2251C176.366 36.315 175.961 36.4185 175.439 36.5354C174.917 36.6614 174.283 36.7378 173.537 36.7648C172.151 36.8188 170.937 36.6344 169.893 36.2116C168.859 35.7887 168.053 35.132 167.478 34.2414C166.902 33.3508 166.618 32.2262 166.627 30.8678V10.7883ZM185.931 36.8728C184.609 36.8728 183.43 36.6434 182.396 36.1846C181.361 35.7168 180.542 35.0286 179.94 34.1199C179.346 33.2023 179.049 32.0598 179.049 30.6924C179.049 29.5409 179.26 28.5738 179.683 27.7911C180.106 27.0084 180.682 26.3787 181.411 25.9019C182.139 25.4251 182.967 25.0653 183.893 24.8224C184.829 24.5795 185.81 24.4085 186.835 24.3096C188.041 24.1836 189.012 24.0667 189.75 23.9587C190.488 23.8418 191.023 23.6708 191.356 23.4459C191.689 23.221 191.855 22.8882 191.855 22.4474V22.3664C191.855 21.5117 191.585 20.8505 191.045 20.3827C190.515 19.9149 189.759 19.681 188.778 19.681C187.744 19.681 186.921 19.9104 186.309 20.3692C185.697 20.819 185.292 21.3858 185.094 22.0695L179.778 21.6377C180.048 20.3782 180.578 19.2897 181.37 18.3721C182.162 17.4455 183.183 16.7348 184.433 16.24C185.693 15.7362 187.15 15.4843 188.805 15.4843C189.957 15.4843 191.059 15.6192 192.112 15.8891C193.173 16.159 194.113 16.5773 194.932 17.1441C195.759 17.7108 196.412 18.4395 196.888 19.3302C197.365 20.2118 197.604 21.2688 197.604 22.5013V36.4814H192.152V33.6072H191.99C191.657 34.2549 191.212 34.8261 190.654 35.3209C190.096 35.8067 189.426 36.1891 188.643 36.468C187.861 36.7378 186.957 36.8728 185.931 36.8728ZM187.577 32.9055C188.423 32.9055 189.17 32.739 189.817 32.4062C190.465 32.0643 190.973 31.6055 191.342 31.0297C191.711 30.454 191.896 29.8018 191.896 29.0731V26.8735C191.716 26.9904 191.468 27.0984 191.153 27.1974C190.848 27.2873 190.501 27.3728 190.114 27.4537C189.728 27.5257 189.341 27.5932 188.954 27.6562C188.567 27.7101 188.216 27.7596 187.901 27.8046C187.227 27.9036 186.637 28.061 186.134 28.2769C185.63 28.4928 185.238 28.7852 184.96 29.154C184.681 29.5139 184.541 29.9637 184.541 30.5035C184.541 31.2861 184.825 31.8844 185.391 32.2982C185.967 32.703 186.696 32.9055 187.577 32.9055ZM211.429 36.8863C209.306 36.8863 207.479 36.4365 205.95 35.5368C204.43 34.6282 203.26 33.3688 202.441 31.7584C201.632 30.1481 201.227 28.2949 201.227 26.1988C201.227 24.0757 201.636 22.2135 202.455 20.6121C203.283 19.0018 204.457 17.7468 205.977 16.8472C207.497 15.9386 209.306 15.4843 211.402 15.4843C213.21 15.4843 214.793 15.8126 216.152 16.4694C217.51 17.1261 218.585 18.0482 219.377 19.2357C220.168 20.4232 220.605 21.8176 220.686 23.4189H215.261C215.108 22.3844 214.703 21.5522 214.047 20.9225C213.399 20.2838 212.549 19.9644 211.496 19.9644C210.605 19.9644 209.827 20.2073 209.162 20.6931C208.505 21.1699 207.992 21.8671 207.623 22.7847C207.254 23.7023 207.07 24.8134 207.07 26.1178C207.07 27.4403 207.25 28.5648 207.61 29.4914C207.979 30.418 208.496 31.1242 209.162 31.61C209.827 32.0958 210.605 32.3387 211.496 32.3387C212.153 32.3387 212.742 32.2037 213.264 31.9339C213.795 31.664 214.231 31.2726 214.573 30.7599C214.924 30.2381 215.153 29.6128 215.261 28.8841H220.686C220.596 30.4675 220.164 31.8619 219.39 33.0674C218.626 34.2639 217.569 35.1995 216.219 35.8742C214.87 36.5489 213.273 36.8863 211.429 36.8863ZM229.575 30.517L229.589 23.6214H230.425L237.064 15.7542H243.663L234.743 26.1718H233.381L229.575 30.517ZM224.366 36.4814V8.84508H230.115V36.4814H224.366ZM237.321 36.4814L231.221 27.4537L235.054 23.392L244.055 36.4814H237.321Z"
    fill="#111827"
  />
  <path
    d="M25.3635 44.441C25.0163 44.441 24.6518 44.4063 24.2873 44.3021C21.9092 43.7119 20.4511 41.2992 21.0413 38.9211L29.9287 3.37149C30.5362 0.993413 32.949 -0.447313 35.3271 0.125507C37.7052 0.73304 39.1459 3.14583 38.5557 5.52391L29.6683 41.0735C29.1649 43.087 27.3597 44.441 25.3635 44.441Z"
    fill="#111827"
  />
  <path
    d="M46.2669 35.5538C45.1213 35.5538 43.993 35.1198 43.1251 34.2519C41.3893 32.5161 41.3893 29.7041 43.1251 27.9683L48.8707 22.2227L43.1251 16.4771C41.3893 14.7413 41.3893 11.9293 43.1251 10.1935C44.8609 8.45765 47.673 8.45765 49.4088 10.1935L58.2962 19.0809C60.032 20.8167 60.032 23.6287 58.2962 25.3645L49.4088 34.2519C48.5409 35.1198 47.4126 35.5538 46.2669 35.5538Z"
    fill="#111827"
  />
  <path
    d="M13.3311 35.5538C12.1855 35.5538 11.0572 35.1198 10.1893 34.2519L1.30186 25.3645C-0.433955 23.6287 -0.433955 20.8167 1.30186 19.0809L10.1893 10.1935C11.9251 8.45765 14.7371 8.45765 16.4729 10.1935C18.2087 11.9293 18.2087 14.7413 16.4729 16.4771L10.7274 22.2227L16.4729 27.9683C18.2087 29.7041 18.2087 32.5161 16.4729 34.2519C15.605 35.1198 14.4767 35.5538 13.3311 35.5538Z"
    fill="#111827"
  />
</svg>